<?xml version="1.0" encoding="UTF-8" standalone="no"?>
<!-- Created with Inkscape (http://www.inkscape.org/) -->

<svg
   width="109.35977mm"
   height="55.868103mm"
   viewBox="0 0 109.35977 55.868104"
   version="1.1"
   id="svg5"
   inkscape:version="1.1.1 (3bf5ae0d25, 2021-09-20)"
   sodipodi:docname="eosc-perf-logo.v6-2-paths-white.svg"
   inkscape:export-filename="/home/valentin/OneDrive/Documents/m-team/eosc-perf/figures/logo/eosc-perf-logo.v6-2-w.png"
   inkscape:export-xdpi="96"
   inkscape:export-ydpi="96"
   xmlns:inkscape="http://www.inkscape.org/namespaces/inkscape"
   xmlns:sodipodi="http://sodipodi.sourceforge.net/DTD/sodipodi-0.dtd"
   xmlns="http://www.w3.org/2000/svg"
   xmlns:svg="http://www.w3.org/2000/svg">
  <sodipodi:namedview
     id="namedview7"
     pagecolor="#ffffff"
     bordercolor="#666666"
     borderopacity="1.0"
     inkscape:pageshadow="2"
     inkscape:pageopacity="0.0"
     inkscape:pagecheckerboard="0"
     inkscape:document-units="mm"
     showgrid="false"
     inkscape:zoom="1.6794594"
     inkscape:cx="232.81301"
     inkscape:cy="125.63567"
     inkscape:window-width="1888"
     inkscape:window-height="1022"
     inkscape:window-x="32"
     inkscape:window-y="29"
     inkscape:window-maximized="1"
     inkscape:current-layer="layer1"
     fit-margin-top="0.7"
     fit-margin-left="0.7"
     fit-margin-right="0.7"
     fit-margin-bottom="0.7" />
  <defs
     id="defs2">
    <marker
       style="overflow:visible"
       id="marker2361"
       refX="0"
       refY="0"
       orient="auto"
       inkscape:stockid="Arrow2Send"
       inkscape:isstock="true">
      <path
         transform="matrix(-0.3,0,0,-0.3,0.69,0)"
         d="M 8.7185878,4.0337352 -2.2072895,0.01601326 8.7185884,-4.0017078 c -1.7454984,2.3720609 -1.7354408,5.6174519 -6e-7,8.035443 z"
         style="fill:context-stroke;fill-rule:evenodd;stroke:context-stroke;stroke-width:0.625;stroke-linejoin:round"
         id="path2359" />
    </marker>
    <marker
       style="overflow:visible"
       id="Arrow2Send"
       refX="0"
       refY="0"
       orient="auto"
       inkscape:stockid="Arrow2Send"
       inkscape:isstock="true">
      <path
         transform="matrix(-0.3,0,0,-0.3,0.69,0)"
         d="M 8.7185878,4.0337352 -2.2072895,0.01601326 8.7185884,-4.0017078 c -1.7454984,2.3720609 -1.7354408,5.6174519 -6e-7,8.035443 z"
         style="fill:context-stroke;fill-rule:evenodd;stroke:context-stroke;stroke-width:0.625;stroke-linejoin:round"
         id="path1271" />
    </marker>
    <marker
       style="overflow:visible"
       id="Arrow2Mend"
       refX="0"
       refY="0"
       orient="auto"
       inkscape:stockid="Arrow2Mend"
       inkscape:isstock="true">
      <path
         transform="scale(-0.6)"
         d="M 8.7185878,4.0337352 -2.2072895,0.01601326 8.7185884,-4.0017078 c -1.7454984,2.3720609 -1.7354408,5.6174519 -6e-7,8.035443 z"
         style="fill:context-stroke;fill-rule:evenodd;stroke:context-stroke;stroke-width:0.625;stroke-linejoin:round"
         id="path1265" />
    </marker>
    <marker
       style="overflow:visible"
       id="marker2335"
       refX="0"
       refY="0"
       orient="auto"
       inkscape:stockid="Arrow1Mend"
       inkscape:isstock="true">
      <path
         transform="matrix(-0.4,0,0,-0.4,-4,0)"
         style="fill:context-stroke;fill-rule:evenodd;stroke:context-stroke;stroke-width:1pt"
         d="M 0,0 5,-5 -12.5,0 5,5 Z"
         id="path2333" />
    </marker>
    <marker
       style="overflow:visible"
       id="marker2084"
       refX="0"
       refY="0"
       orient="auto"
       inkscape:stockid="Arrow1Mend"
       inkscape:isstock="true">
      <path
         transform="matrix(-0.4,0,0,-0.4,-4,0)"
         style="fill:context-stroke;fill-rule:evenodd;stroke:context-stroke;stroke-width:1pt"
         d="M 0,0 5,-5 -12.5,0 5,5 Z"
         id="path2082" />
    </marker>
    <marker
       style="overflow:visible"
       id="Arrow1Mend"
       refX="0"
       refY="0"
       orient="auto"
       inkscape:stockid="Arrow1Mend"
       inkscape:isstock="true">
      <path
         transform="matrix(-0.4,0,0,-0.4,-4,0)"
         style="fill:context-stroke;fill-rule:evenodd;stroke:context-stroke;stroke-width:1pt"
         d="M 0,0 5,-5 -12.5,0 5,5 Z"
         id="path1247" />
    </marker>
    <marker
       style="overflow:visible"
       id="Arrow1Lend"
       refX="0"
       refY="0"
       orient="auto"
       inkscape:stockid="Arrow1Lend"
       inkscape:isstock="true">
      <path
         transform="matrix(-0.8,0,0,-0.8,-10,0)"
         style="fill:context-stroke;fill-rule:evenodd;stroke:context-stroke;stroke-width:1pt"
         d="M 0,0 5,-5 -12.5,0 5,5 Z"
         id="path1241" />
    </marker>
    <rect
       x="131.4968"
       y="250.97549"
       width="393.53708"
       height="54.162037"
       id="rect7319" />
    <marker
       style="overflow:visible"
       id="marker2084-5"
       refX="0"
       refY="0"
       orient="auto"
       inkscape:stockid="Arrow1Mend"
       inkscape:isstock="true">
      <path
         transform="matrix(-0.4,0,0,-0.4,-4,0)"
         style="fill:context-stroke;fill-rule:evenodd;stroke:context-stroke;stroke-width:1pt"
         d="M 0,0 5,-5 -12.5,0 5,5 Z"
         id="path2082-3" />
    </marker>
  </defs>
  <g
     inkscape:label="Layer 1"
     inkscape:groupmode="layer"
     id="layer1"
     transform="translate(-40.590681,-18.727302)">
    <path
       style="color:#000000;fill:#ffffff;fill-rule:evenodd;-inkscape-stroke:none"
       d="m 131.2207,40.673828 -0.62109,2.421875 c 6.16608,1.583623 11.31225,5.817292 14.05469,11.5625 2.74243,5.745208 2.79666,12.407135 0.15039,18.197266 l 2.27539,1.039062 c 2.95326,-6.461854 2.89066,-13.90078 -0.16992,-20.3125 -3.06059,-6.411719 -8.80804,-11.140862 -15.68946,-12.908203 z"
       id="path31-2" />
    <path
       style="color:#000000;fill:#ffffff;fill-rule:evenodd;-inkscape-stroke:none"
       d="m 116.98633,30.691406 c -1.39904,0.05608 -2.80798,0.236462 -4.21485,0.546875 l 0.53907,2.441406 c 10.09722,-2.227863 20.33197,3.032158 24.39843,12.539063 l 2.29883,-0.984375 C 136.04169,35.962046 126.77956,30.298836 116.98633,30.691406 Z"
       id="path31-4" />
    <path
       style="color:#000000;fill:#ffffff;fill-rule:evenodd;-inkscape-stroke:none"
       d="m 93.361328,19.429687 c -3.449043,0.05568 -6.885969,0.854807 -10.064453,2.392579 l 1.087891,2.25 c 5.696117,-2.755819 12.315548,-2.861524 18.097654,-0.291016 5.78211,2.570509 10.13602,7.555784 11.90625,13.630859 l 2.40039,-0.699218 c -1.97561,-6.779894 -6.83808,-12.348063 -13.29101,-15.216797 -3.22647,-1.434367 -6.687679,-2.12209 -10.136722,-2.066407 z"
       id="path31-4-6" />
    <g
       id="rect1660">
      <path
         style="color:#000000;fill:#ffffff;stroke-width:0.5763;-inkscape-stroke:none"
         d="m 41.892715,55.962666 h 54.4637 v 3.478159 h -54.4637 z"
         id="path1449" />
      <path
         style="color:#000000;fill:#ffffff;-inkscape-stroke:none"
         d="m 41.605469,55.673828 v 0.289063 3.765625 H 96.644531 V 55.673828 Z M 42.181641,56.25 h 53.886718 v 2.902344 H 42.181641 Z"
         id="path1451" />
    </g>
    <g
       id="rect1660-5">
      <path
         style="color:#000000;fill:#ffffff;stroke-width:0.583063;-inkscape-stroke:none"
         d="m 49.848095,48.252216 h 46.501938 v 3.464649 H 49.848095 Z"
         id="path1455" />
      <path
         style="color:#000000;fill:#ffffff;-inkscape-stroke:none"
         d="m 49.556641,47.960937 v 0.291016 3.755859 h 47.083984 v -4.046875 z m 0.582031,0.582032 h 45.919922 v 2.882812 H 50.138672 Z"
         id="path1457" />
    </g>
    <g
       id="rect1660-8">
      <path
         style="color:#000000;fill:#ffffff;stroke-width:0.593017;-inkscape-stroke:none"
         d="m 57.800072,40.546246 h 38.537983 v 3.442181 H 57.800072 Z"
         id="path1461" />
      <path
         style="color:#000000;fill:#ffffff;-inkscape-stroke:none"
         d="m 57.503906,40.25 v 0.296875 3.738281 h 39.13086 V 40.25 Z m 0.591797,0.591797 h 37.945313 v 2.849609 H 58.095703 Z"
         id="path1463" />
    </g>
    <g
       id="rect1660-7">
      <path
         style="color:#000000;fill:#ffffff;stroke-width:0.63986;-inkscape-stroke:none"
         d="m 73.707497,25.186216 h 22.556139 v 3.293388 H 73.707497 Z"
         id="path1467" />
      <path
         style="color:#000000;fill:#ffffff;-inkscape-stroke:none"
         d="m 73.386719,24.867187 v 0.31836 3.613281 h 23.197265 v -3.931641 z m 0.640625,0.638672 h 21.916015 v 2.654297 H 74.027344 Z"
         id="path1469" />
    </g>
    <g
       id="rect1660-0">
      <path
         style="color:#000000;fill:#ffffff;stroke-width:0.60915;-inkscape-stroke:none"
         d="m 65.750137,32.850269 h 30.566851 v 3.399703 H 65.750137 Z"
         id="path1473" />
      <path
         style="color:#000000;fill:#ffffff;-inkscape-stroke:none"
         d="m 65.445312,32.544922 v 0.304687 3.705078 h 31.175782 v -4.009765 z m 0.609375,0.609375 h 29.957032 v 2.791015 H 66.054687 Z"
         id="path1475" />
    </g>
    <g
       aria-label="EOSC PERFORMANCE"
       transform="matrix(0.26458333,0,0,0.26458333,6.4725485,-4.1067715)"
       id="text7317"
       style="font-size:48px;line-height:1.1;letter-spacing:0px;white-space:pre;shape-inside:url(#rect7319);fill:#ffffff">
      <path
         d="m 156.26409,263.99861 q 0,0.24 -0.192,0.432 -0.192,0.144 -0.432,0.144 h -12.912 q -0.192,0 -0.288,0.24 l -1.104,9.024 q 0,0.24 0.192,0.24 h 8.304 q 0.24,0 0.384,0.192 0.144,0.144 0.096,0.384 l -0.432,3.648 q -0.048,0.24 -0.24,0.432 -0.144,0.144 -0.384,0.144 h -8.304 q -0.24,0 -0.24,0.24 l -1.152,9.216 q 0,0.24 0.192,0.24 h 12.96 q 0.24,0 0.384,0.192 0.144,0.144 0.096,0.384 l -0.432,3.648 q -0.048,0.24 -0.24,0.432 -0.144,0.144 -0.384,0.144 h -18.048 q -0.24,0 -0.384,-0.144 -0.144,-0.192 -0.096,-0.432 l 3.984,-32.448 q 0.048,-0.24 0.192,-0.384 0.192,-0.192 0.432,-0.192 h 18.048 q 0.24,0 0.384,0.192 0.144,0.144 0.096,0.384 z"
         style="font-style:italic;font-weight:600;font-stretch:semi-condensed;font-family:'Barlow Semi Condensed';-inkscape-font-specification:'Barlow Semi Condensed,  Semi-Bold Italic Semi-Condensed'"
         id="path1266" />
      <path
         d="m 167.01605,293.80661 q -4.224,0 -6.672,-2.4 -2.448,-2.4 -2.448,-6.432 0,-0.48 0.096,-1.632 l 1.632,-13.536 q 0.384,-3.072 1.968,-5.424 1.584,-2.4 4.08,-3.696 2.496,-1.296 5.568,-1.296 4.272,0 6.768,2.4 2.496,2.4 2.496,6.432 0,0.432 -0.096,1.584 l -1.68,13.536 q -0.384,3.12 -1.968,5.52 -1.584,2.352 -4.128,3.648 -2.496,1.296 -5.616,1.296 z m 0.624,-4.8 q 2.256,0 3.792,-1.488 1.584,-1.536 1.872,-3.936 l 1.728,-13.92 q 0.048,-0.288 0.048,-0.864 0,-2.112 -1.2,-3.36 -1.2,-1.248 -3.216,-1.248 -2.208,0 -3.744,1.536 -1.536,1.488 -1.872,3.936 l -1.68,13.92 q -0.048,0.336 -0.048,0.96 0,2.016 1.152,3.264 1.152,1.2 3.168,1.2 z"
         style="font-style:italic;font-weight:600;font-stretch:semi-condensed;font-family:'Barlow Semi Condensed';-inkscape-font-specification:'Barlow Semi Condensed,  Semi-Bold Italic Semi-Condensed'"
         id="path1268" />
      <path
         d="m 191.92805,293.75861 q -4.224,0 -6.72,-2.112 -2.448,-2.16 -2.448,-5.76 0,-0.432 0.096,-1.296 l 0.144,-1.248 q 0.048,-0.24 0.192,-0.384 0.192,-0.192 0.432,-0.192 h 4.176 q 0.528,0 0.528,0.576 l -0.144,0.96 q -0.048,0.24 -0.048,0.624 0,1.776 1.248,2.928 1.248,1.104 3.36,1.104 2.304,0 3.696,-1.344 1.392,-1.344 1.392,-3.408 0,-1.584 -1.2,-2.64 -1.2,-1.056 -4.32,-2.88 -2.4,-1.344 -3.936,-2.448 -1.488,-1.152 -2.496,-2.784 -1.008,-1.632 -1.008,-3.888 0,-0.384 0.096,-1.248 0.528,-4.128 3.456,-6.528 2.976,-2.4 7.344,-2.4 4.224,0 6.672,2.208 2.496,2.16 2.496,5.856 0,0.432 -0.096,1.392 l -0.096,1.008 q -0.048,0.24 -0.24,0.432 -0.192,0.144 -0.432,0.144 h -4.224 q -0.24,0 -0.384,-0.144 -0.144,-0.192 -0.096,-0.432 l 0.096,-0.912 q 0.048,-0.24 0.048,-0.72 0,-1.776 -1.152,-2.88 -1.152,-1.152 -3.264,-1.152 -2.016,0 -3.312,1.104 -1.248,1.056 -1.488,2.976 -0.048,0.24 -0.048,0.672 0,1.536 1.152,2.592 1.152,1.056 4.32,2.784 2.928,1.824 4.272,2.832 1.344,1.008 2.304,2.544 0.96,1.536 0.96,3.648 0,0.336 -0.096,1.2 -0.528,4.176 -3.6,6.72 -3.024,2.496 -7.632,2.496 z"
         style="font-style:italic;font-weight:600;font-stretch:semi-condensed;font-family:'Barlow Semi Condensed';-inkscape-font-specification:'Barlow Semi Condensed,  Semi-Bold Italic Semi-Condensed'"
         id="path1270" />
      <path
         d="m 216.31196,293.75861 q -4.224,0 -6.672,-2.304 -2.448,-2.352 -2.448,-6.288 0,-0.528 0.096,-1.584 l 1.728,-14.112 q 0.576,-4.56 3.696,-7.296 3.168,-2.784 7.776,-2.784 4.224,0 6.672,2.304 2.496,2.256 2.496,6.096 0,0.432 -0.096,1.488 l -0.048,0.288 q -0.048,0.24 -0.24,0.432 -0.144,0.192 -0.384,0.192 l -4.368,0.192 q -0.24,0 -0.384,-0.144 -0.144,-0.192 -0.096,-0.432 l 0.048,-0.576 q 0.048,-0.288 0.048,-0.816 0,-1.968 -1.152,-3.072 -1.104,-1.152 -3.072,-1.152 -2.208,0 -3.696,1.392 -1.488,1.392 -1.776,3.648 l -1.776,14.736 q -0.048,0.288 -0.048,0.816 0,1.92 1.152,3.072 1.152,1.104 3.12,1.104 2.16,0 3.648,-1.344 1.488,-1.392 1.776,-3.648 l 0.048,-0.624 q 0.048,-0.528 0.624,-0.528 l 4.32,0.192 q 0.576,0 0.48,0.384 l -0.048,0.384 q -0.528,4.512 -3.696,7.248 -3.12,2.736 -7.728,2.736 z"
         style="font-style:italic;font-weight:600;font-stretch:semi-condensed;font-family:'Barlow Semi Condensed';-inkscape-font-specification:'Barlow Semi Condensed,  Semi-Bold Italic Semi-Condensed'"
         id="path1272" />
      <path
         d="m 256.1998,259.72661 q 3.648,0 5.808,2.304 2.16,2.256 2.16,6.048 0,0.48 -0.096,1.632 -0.528,4.368 -3.36,7.056 -2.832,2.688 -6.912,2.688 h -5.712 q -0.192,0 -0.288,0.24 l -1.584,13.104 q -0.048,0.24 -0.24,0.432 -0.144,0.144 -0.384,0.144 h -4.32 q -0.24,0 -0.384,-0.144 -0.144,-0.192 -0.096,-0.432 l 3.984,-32.496 q 0.048,-0.24 0.24,-0.384 0.192,-0.192 0.432,-0.192 z m -2.688,15.264 q 2.256,0 3.696,-1.68 1.488,-1.728 1.488,-4.512 0,-1.968 -1.056,-3.12 -1.008,-1.152 -2.832,-1.152 h -4.896 q -0.192,0 -0.288,0.24 l -1.2,9.984 q 0,0.24 0.192,0.24 z"
         style="font-style:italic;font-weight:600;font-stretch:semi-condensed;font-family:'Barlow Semi Condensed';-inkscape-font-specification:'Barlow Semi Condensed,  Semi-Bold Italic Semi-Condensed'"
         id="path1274" />
      <path
         d="m 288.11972,263.99861 q 0,0.24 -0.192,0.432 -0.192,0.144 -0.432,0.144 h -12.912 q -0.192,0 -0.288,0.24 l -1.104,9.024 q 0,0.24 0.192,0.24 h 8.304 q 0.24,0 0.384,0.192 0.144,0.144 0.096,0.384 l -0.432,3.648 q -0.048,0.24 -0.24,0.432 -0.144,0.144 -0.384,0.144 h -8.304 q -0.24,0 -0.24,0.24 l -1.152,9.216 q 0,0.24 0.192,0.24 h 12.96 q 0.24,0 0.384,0.192 0.144,0.144 0.096,0.384 l -0.432,3.648 q -0.048,0.24 -0.24,0.432 -0.144,0.144 -0.384,0.144 h -18.048 q -0.24,0 -0.384,-0.144 -0.144,-0.192 -0.096,-0.432 l 3.984,-32.448 q 0.048,-0.24 0.192,-0.384 0.192,-0.192 0.432,-0.192 h 18.048 q 0.24,0 0.384,0.192 0.144,0.144 0.096,0.384 z"
         style="font-style:italic;font-weight:600;font-stretch:semi-condensed;font-family:'Barlow Semi Condensed';-inkscape-font-specification:'Barlow Semi Condensed,  Semi-Bold Italic Semi-Condensed'"
         id="path1276" />
      <path
         d="m 304.87168,293.37461 q -0.48,0 -0.624,-0.48 l -3.36,-13.824 q -0.096,-0.192 -0.192,-0.192 h -3.984 q -0.24,0 -0.24,0.24 l -1.68,13.68 q -0.048,0.24 -0.24,0.432 -0.144,0.144 -0.384,0.144 h -4.32 q -0.24,0 -0.384,-0.144 -0.144,-0.192 -0.096,-0.432 l 3.984,-32.496 q 0.048,-0.24 0.192,-0.384 0.192,-0.192 0.432,-0.192 h 10.752 q 3.696,0 5.808,2.256 2.112,2.256 2.112,6 0,0.48 -0.096,1.536 -0.384,3.168 -2.064,5.424 -1.68,2.256 -4.224,3.264 -0.288,0.096 -0.192,0.336 l 3.744,14.16 0.048,0.192 q 0,0.48 -0.528,0.48 z m -6.384,-28.848 q -0.192,0 -0.288,0.24 l -1.152,9.552 q 0,0.24 0.192,0.24 h 4.896 q 2.16,0 3.6,-1.584 1.44,-1.632 1.44,-4.272 0,-1.92 -1.056,-3.024 -1.008,-1.152 -2.736,-1.152 z"
         style="font-style:italic;font-weight:600;font-stretch:semi-condensed;font-family:'Barlow Semi Condensed';-inkscape-font-specification:'Barlow Semi Condensed,  Semi-Bold Italic Semi-Condensed'"
         id="path1278" />
      <path
         d="m 337.03167,263.99861 q -0.048,0.24 -0.24,0.432 -0.192,0.144 -0.432,0.144 h -12.864 q -0.192,0 -0.288,0.24 l -1.104,9.024 q 0,0.24 0.192,0.24 h 8.304 q 0.24,0 0.384,0.192 0.144,0.144 0.096,0.384 l -0.432,3.648 q -0.048,0.24 -0.24,0.432 -0.144,0.144 -0.384,0.144 h -8.304 q -0.24,0 -0.24,0.24 l -1.68,13.68 q -0.048,0.24 -0.24,0.432 -0.144,0.144 -0.384,0.144 h -4.32 q -0.24,0 -0.384,-0.144 -0.144,-0.192 -0.096,-0.432 l 3.984,-32.448 q 0.048,-0.24 0.192,-0.384 0.192,-0.192 0.432,-0.192 h 18 q 0.24,0 0.384,0.192 0.144,0.144 0.096,0.384 z"
         style="font-style:italic;font-weight:600;font-stretch:semi-condensed;font-family:'Barlow Semi Condensed';-inkscape-font-specification:'Barlow Semi Condensed,  Semi-Bold Italic Semi-Condensed'"
         id="path1280" />
      <path
         d="m 346.58356,293.80661 q -4.224,0 -6.672,-2.4 -2.448,-2.4 -2.448,-6.432 0,-0.48 0.096,-1.632 l 1.632,-13.536 q 0.384,-3.072 1.968,-5.424 1.584,-2.4 4.08,-3.696 2.496,-1.296 5.568,-1.296 4.272,0 6.768,2.4 2.496,2.4 2.496,6.432 0,0.432 -0.096,1.584 l -1.68,13.536 q -0.384,3.12 -1.968,5.52 -1.584,2.352 -4.128,3.648 -2.496,1.296 -5.616,1.296 z m 0.624,-4.8 q 2.256,0 3.792,-1.488 1.584,-1.536 1.872,-3.936 l 1.728,-13.92 q 0.048,-0.288 0.048,-0.864 0,-2.112 -1.2,-3.36 -1.2,-1.248 -3.216,-1.248 -2.208,0 -3.744,1.536 -1.536,1.488 -1.872,3.936 l -1.68,13.92 q -0.048,0.336 -0.048,0.96 0,2.016 1.152,3.264 1.152,1.2 3.168,1.2 z"
         style="font-style:italic;font-weight:600;font-stretch:semi-condensed;font-family:'Barlow Semi Condensed';-inkscape-font-specification:'Barlow Semi Condensed,  Semi-Bold Italic Semi-Condensed'"
         id="path1282" />
      <path
         d="m 377.92755,293.37461 q -0.48,0 -0.624,-0.48 l -3.36,-13.824 q -0.096,-0.192 -0.192,-0.192 h -3.984 q -0.24,0 -0.24,0.24 l -1.68,13.68 q -0.048,0.24 -0.24,0.432 -0.144,0.144 -0.384,0.144 h -4.32 q -0.24,0 -0.384,-0.144 -0.144,-0.192 -0.096,-0.432 l 3.984,-32.496 q 0.048,-0.24 0.192,-0.384 0.192,-0.192 0.432,-0.192 h 10.752 q 3.696,0 5.808,2.256 2.112,2.256 2.112,6 0,0.48 -0.096,1.536 -0.384,3.168 -2.064,5.424 -1.68,2.256 -4.224,3.264 -0.288,0.096 -0.192,0.336 l 3.744,14.16 0.048,0.192 q 0,0.48 -0.528,0.48 z m -6.384,-28.848 q -0.192,0 -0.288,0.24 l -1.152,9.552 q 0,0.24 0.192,0.24 h 4.896 q 2.16,0 3.6,-1.584 1.44,-1.632 1.44,-4.272 0,-1.92 -1.056,-3.024 -1.008,-1.152 -2.736,-1.152 z"
         style="font-style:italic;font-weight:600;font-stretch:semi-condensed;font-family:'Barlow Semi Condensed';-inkscape-font-specification:'Barlow Semi Condensed,  Semi-Bold Italic Semi-Condensed'"
         id="path1284" />
      <path
         d="m 387.86355,293.37461 q -0.24,0 -0.384,-0.144 -0.144,-0.192 -0.096,-0.432 l 3.984,-32.448 q 0.048,-0.24 0.192,-0.384 0.192,-0.192 0.432,-0.192 h 4.272 q 0.432,0 0.576,0.432 l 4.464,11.856 q 0.096,0.192 0.288,0 l 7.392,-11.856 q 0.288,-0.432 0.72,-0.432 h 4.224 q 0.24,0 0.384,0.192 0.144,0.144 0.096,0.384 l -3.984,32.448 q -0.048,0.24 -0.24,0.432 -0.144,0.144 -0.384,0.144 h -4.272 q -0.24,0 -0.384,-0.144 -0.144,-0.192 -0.096,-0.432 l 2.64,-21.648 q 0.048,-0.192 -0.096,-0.192 -0.096,-0.048 -0.192,0.144 l -5.472,8.784 q -0.288,0.432 -0.72,0.432 h -1.536 q -0.432,0 -0.576,-0.432 l -3.36,-8.832 q -0.048,-0.192 -0.144,-0.144 -0.096,0 -0.144,0.192 l -2.64,21.696 q -0.048,0.24 -0.24,0.432 -0.144,0.144 -0.384,0.144 z"
         style="font-style:italic;font-weight:600;font-stretch:semi-condensed;font-family:'Barlow Semi Condensed';-inkscape-font-specification:'Barlow Semi Condensed,  Semi-Bold Italic Semi-Condensed'"
         id="path1286" />
      <path
         d="m 433.5115,293.37461 q -0.576,0 -0.624,-0.48 l -0.528,-5.136 q 0,-0.192 -0.192,-0.192 h -9.6 q -0.192,0 -0.24,0.192 l -1.872,5.136 q -0.144,0.48 -0.672,0.48 h -4.464 q -0.576,0 -0.384,-0.624 l 12.432,-32.496 q 0.192,-0.48 0.72,-0.48 h 5.328 q 0.576,0 0.624,0.48 l 4.464,32.496 v 0.144 q 0,0.48 -0.528,0.48 z m -9.456,-10.464 q -0.048,0.144 0,0.24 0.096,0.048 0.192,0.048 h 7.296 q 0.096,0 0.192,-0.048 0.096,-0.096 0.048,-0.24 l -1.728,-15.552 q -0.048,-0.144 -0.144,-0.144 -0.096,0 -0.144,0.144 z"
         style="font-style:italic;font-weight:600;font-stretch:semi-condensed;font-family:'Barlow Semi Condensed';-inkscape-font-specification:'Barlow Semi Condensed,  Semi-Bold Italic Semi-Condensed'"
         id="path1288" />
      <path
         d="m 443.35149,293.37461 q -0.24,0 -0.384,-0.144 -0.144,-0.192 -0.096,-0.432 l 3.984,-32.448 q 0.048,-0.24 0.192,-0.384 0.192,-0.192 0.432,-0.192 h 4.32 q 0.432,0 0.576,0.432 l 7.632,20.88 q 0.048,0.192 0.144,0.192 0.096,-0.048 0.144,-0.24 l 2.544,-20.688 q 0.048,-0.24 0.192,-0.384 0.192,-0.192 0.432,-0.192 h 4.224 q 0.24,0 0.384,0.192 0.144,0.144 0.096,0.384 l -3.984,32.448 q 0,0.24 -0.192,0.432 -0.192,0.144 -0.432,0.144 h -4.272 q -0.432,0 -0.576,-0.432 l -7.68,-20.976 q -0.048,-0.192 -0.144,-0.144 -0.096,0 -0.144,0.192 l -2.496,20.784 q -0.048,0.24 -0.24,0.432 -0.144,0.144 -0.384,0.144 z"
         style="font-style:italic;font-weight:600;font-stretch:semi-condensed;font-family:'Barlow Semi Condensed';-inkscape-font-specification:'Barlow Semi Condensed,  Semi-Bold Italic Semi-Condensed'"
         id="path1290" />
      <path
         d="m 479.54346,293.75861 q -4.224,0 -6.672,-2.304 -2.448,-2.352 -2.448,-6.288 0,-0.528 0.096,-1.584 l 1.728,-14.112 q 0.576,-4.56 3.696,-7.296 3.168,-2.784 7.776,-2.784 4.224,0 6.672,2.304 2.496,2.256 2.496,6.096 0,0.432 -0.096,1.488 l -0.048,0.288 q -0.048,0.24 -0.24,0.432 -0.144,0.192 -0.384,0.192 l -4.368,0.192 q -0.24,0 -0.384,-0.144 -0.144,-0.192 -0.096,-0.432 l 0.048,-0.576 q 0.048,-0.288 0.048,-0.816 0,-1.968 -1.152,-3.072 -1.104,-1.152 -3.072,-1.152 -2.208,0 -3.696,1.392 -1.488,1.392 -1.776,3.648 l -1.776,14.736 q -0.048,0.288 -0.048,0.816 0,1.92 1.152,3.072 1.152,1.104 3.12,1.104 2.16,0 3.648,-1.344 1.488,-1.392 1.776,-3.648 l 0.048,-0.624 q 0.048,-0.528 0.624,-0.528 l 4.32,0.192 q 0.576,0 0.48,0.384 l -0.048,0.384 q -0.528,4.512 -3.696,7.248 -3.12,2.736 -7.728,2.736 z"
         style="font-style:italic;font-weight:600;font-stretch:semi-condensed;font-family:'Barlow Semi Condensed';-inkscape-font-specification:'Barlow Semi Condensed,  Semi-Bold Italic Semi-Condensed'"
         id="path1292" />
      <path
         d="m 517.55938,263.99861 q 0,0.24 -0.192,0.432 -0.192,0.144 -0.432,0.144 h -12.912 q -0.192,0 -0.288,0.24 l -1.104,9.024 q 0,0.24 0.192,0.24 h 8.304 q 0.24,0 0.384,0.192 0.144,0.144 0.096,0.384 l -0.432,3.648 q -0.048,0.24 -0.24,0.432 -0.144,0.144 -0.384,0.144 h -8.304 q -0.24,0 -0.24,0.24 l -1.152,9.216 q 0,0.24 0.192,0.24 h 12.96 q 0.24,0 0.384,0.192 0.144,0.144 0.096,0.384 l -0.432,3.648 q -0.048,0.24 -0.24,0.432 -0.144,0.144 -0.384,0.144 h -18.048 q -0.24,0 -0.384,-0.144 -0.144,-0.192 -0.096,-0.432 l 3.984,-32.448 q 0.048,-0.24 0.192,-0.384 0.192,-0.192 0.432,-0.192 h 18.048 q 0.24,0 0.384,0.192 0.144,0.144 0.096,0.384 z"
         style="font-style:italic;font-weight:600;font-stretch:semi-condensed;font-family:'Barlow Semi Condensed';-inkscape-font-specification:'Barlow Semi Condensed,  Semi-Bold Italic Semi-Condensed'"
         id="path1294" />
    </g>
    <g
       id="path1991">
      <path
         style="color:#000000;fill:#ffffff;-inkscape-stroke:none"
         d="m 105.26953,39.056641 v 20.888671 h 1.5 V 39.056641 Z"
         id="path1519" />
      <g
         id="g1509">
        <g
           id="path1511">
          <path
             style="color:#000000;fill:#ffffff;fill-rule:evenodd;stroke-width:0.281569;stroke-linejoin:round;-inkscape-stroke:none"
             d="m 104.20232,41.94849 1.81003,-4.922217 1.81002,4.922217 c -1.06864,-0.786364 -2.53072,-0.781833 -3.62005,0 z"
             id="path1515" />
          <path
             style="color:#000000;fill:#ffffff;fill-rule:evenodd;stroke-linejoin:round;-inkscape-stroke:none"
             d="m 106.01172,36.884766 a 0.14079858,0.14079858 0 0 0 -0.13086,0.09375 l -1.81055,4.921875 a 0.14079858,0.14079858 0 0 0 0.21485,0.162109 c 1.04105,-0.747188 2.43406,-0.749879 3.45312,0 a 0.14079858,0.14079858 0 0 0 0.2168,-0.162109 l -1.81055,-4.921875 a 0.14079858,0.14079858 0 0 0 -0.13281,-0.09375 z m 0,0.548828 1.58008,4.300781 c -0.98629,-0.572025 -2.16121,-0.570956 -3.16016,0 z"
             id="path1517" />
        </g>
      </g>
    </g>
    <g
       id="path1991-5">
      <path
         style="color:#000000;fill:#ffffff;-inkscape-stroke:none"
         d="m 106.01953,58.445312 v 1.5 h 22.53125 v -1.5 z"
         id="path1533" />
      <g
         id="g1523">
        <g
           id="path1525">
          <path
             style="color:#000000;fill:#ffffff;fill-rule:evenodd;stroke-width:0.28125;stroke-linejoin:round;-inkscape-stroke:none"
             d="m 125.66308,57.379247 4.91664,1.807975 -4.91664,1.807975 c 0.78547,-1.067428 0.78094,-2.527854 0,-3.61595 z"
             id="path1529" />
          <path
             style="color:#000000;fill:#ffffff;fill-rule:evenodd;stroke-linejoin:round;-inkscape-stroke:none"
             d="m 125.71094,57.248047 a 0.14063906,0.14063906 0 0 0 -0.16211,0.21289 c 0.74633,1.03988 0.75098,2.43327 0.002,3.451172 a 0.14063906,0.14063906 0 0 0 0.16016,0.214844 l 4.91797,-1.808594 a 0.14063906,0.14063906 0 0 0 0,-0.263672 z m 0.16797,0.359375 4.29296,1.580078 -4.29492,1.580078 c 0.57289,-0.985467 0.57249,-2.161502 0.002,-3.160156 z"
             id="path1531" />
        </g>
      </g>
    </g>
    <path
       style="color:#000000;fill:#ffffff;-inkscape-stroke:none"
       d="m 124.30664,41.230469 -18.24414,16.921875 0.96875,1.044922 18.24414,-16.921875 z"
       id="path2161" />
  </g>
</svg>
